<?xml version="1.0" standalone="no"?>
<!DOCTYPE svg PUBLIC "-//W3C//DTD SVG 20010904//EN"
 "http://www.w3.org/TR/2001/REC-SVG-20010904/DTD/svg10.dtd">
<svg version="1.0" xmlns="http://www.w3.org/2000/svg"
 width="2000.000000pt" height="1500.000000pt" viewBox="0 0 2000.000000 1500.000000"
 preserveAspectRatio="xMidYMid meet">

<g transform="translate(0.000000,1500.000000) scale(0.100000,-0.100000)"
fill="#000000" stroke="none">
<path d="M7235 12384 c-162 -24 -266 -60 -1452 -504 -672 -252 -1235 -468
-1252 -481 -37 -27 -81 -111 -81 -153 0 -17 5 -48 10 -68 9 -30 293 -445 388
-565 63 -80 232 -193 345 -232 32 -11 229 -54 439 -96 428 -86 495 -104 654
-179 152 -73 245 -138 344 -243 182 -192 250 -356 282 -671 11 -113 3 -325
-111 -2879 -68 -1516 -121 -2776 -117 -2800 17 -125 119 -223 234 -223 95 0
222 91 272 194 16 34 94 376 246 1086 122 571 229 1051 238 1067 37 72 136
133 215 133 39 0 158 -40 260 -86 122 -56 243 -198 280 -329 7 -22 88 -596
180 -1275 187 -1371 172 -1292 266 -1386 116 -116 285 -112 393 11 77 88 70
38 181 1283 94 1068 101 1135 124 1186 46 99 131 173 227 195 25 6 326 22 670
36 1553 63 1606 64 1708 40 78 -19 180 -70 254 -130 216 -171 397 -566 463
-1010 16 -105 15 -125 -6 -447 -22 -319 -22 -340 -6 -390 20 -65 66 -122 120
-151 63 -33 164 -30 236 7 69 36 141 103 174 163 14 28 99 305 197 648 94 330
173 602 176 604 9 10 124 -80 204 -159 155 -154 129 -112 660 -1079 291 -530
308 -554 457 -629 178 -89 347 -74 415 36 52 83 80 -19 -584 2080 -373 1180
-601 1915 -594 1917 6 2 148 26 316 55 168 28 330 58 360 66 113 32 210 106
210 160 0 59 -79 144 -186 201 -33 17 -374 142 -759 278 -2324 819 -3763 1350
-3962 1461 -164 91 -441 290 -628 449 -123 104 -356 336 -479 475 -193 219
-300 370 -442 625 -79 141 -224 440 -224 460 0 8 18 8 63 -1 132 -28 249 -14
312 39 100 82 100 217 0 418 -200 398 -522 620 -924 637 -125 5 -125 5 -220
53 -168 83 -236 102 -386 105 -71 1 -143 0 -160 -2z"/>
</g>
</svg>
